<svg xmlns="http://www.w3.org/2000/svg" xmlns:xlink="http://www.w3.org/1999/xlink" width="215" zoomAndPan="magnify" viewBox="0 0 161.25 161.249997" height="215" preserveAspectRatio="xMidYMid meet" version="1.2"><defs><clipPath id="937898ba32"><path d="M 0 0 L 160.503906 0 L 160.503906 160.503906 L 0 160.503906 Z M 0 0 "/></clipPath><clipPath id="b44a7dc11a"><path d="M 80.25 0 C 35.929688 0 0 35.929688 0 80.25 C 0 124.574219 35.929688 160.503906 80.25 160.503906 C 124.574219 160.503906 160.503906 124.574219 160.503906 80.25 C 160.503906 35.929688 124.574219 0 80.25 0 Z M 80.25 0 "/></clipPath><clipPath id="02183cd006"><path d="M 31.027344 42.191406 L 129.566406 42.191406 L 129.566406 118.335938 L 31.027344 118.335938 Z M 31.027344 42.191406 "/></clipPath></defs><g id="4fab58b385"><g clip-rule="nonzero" clip-path="url(#937898ba32)"><g clip-rule="nonzero" clip-path="url(#b44a7dc11a)"><path style=" stroke:none;fill-rule:nonzero;fill:#51b37f;fill-opacity:1;" d="M 0 0 L 160.503906 0 L 160.503906 160.503906 L 0 160.503906 Z M 0 0 "/></g></g><g clip-rule="nonzero" clip-path="url(#02183cd006)"><path style=" stroke:none;fill-rule:nonzero;fill:#fffffe;fill-opacity:1;" d="M 52.113281 98.441406 L 108.34375 42.207031 L 129.429688 63.292969 L 129.429688 97.234375 L 108.34375 118.320312 L 84.347656 94.320312 L 94.289062 84.378906 L 108.351562 98.441406 L 115.382812 91.410156 L 115.382812 69.117188 L 108.351562 62.085938 L 52.113281 118.320312 L 31.027344 97.234375 L 31.027344 63.292969 L 52.113281 42.207031 L 76.109375 66.207031 L 66.171875 76.144531 L 52.113281 62.082031 L 45.082031 69.113281 L 45.082031 91.410156 Z M 52.113281 98.441406 "/></g></g></svg>